<?xml version="1.0" encoding="utf-8"?>
<!-- Generator: Adobe Illustrator 19.0.0, SVG Export Plug-In . SVG Version: 6.00 Build 0)  -->
<svg version="1.1" xmlns="http://www.w3.org/2000/svg" xmlns:xlink="http://www.w3.org/1999/xlink" x="0px" y="0px"
	 viewBox="0 0 657 636.8" style="enable-background:new 0 0 657 636.8;" xml:space="preserve">
<style type="text/css">
	.st0{display:none;}
	.st1{display:inline;fill:#F3C8B7;}
	.st2{fill:#F0F1F6;}
	.st3{fill:#151634;}
	.st4{fill:#AAAED8;}
	.st5{fill:#353B67;}
	.st6{fill:#2C3896;}
	.st7{fill:#707BBF;}
	.st8{fill:#F6F0E9;}
</style>
<g id="BG" class="st0">
	<rect x="-280.6" y="-254.3" class="st1" width="1122" height="1122"/>
</g>
<g id="Object">
	<g>
		<path class="st2" d="M524.3,444.9C524.3,444.8,524.3,444.8,524.3,444.9L524.3,444.9l0-0.1l0,0l0,0l0-0.1c0,0,0,0.1,0,0.1l0-0.3
			c0-0.1,0-0.2,0-0.3l0-0.4c0-0.2,0-0.5-0.1-0.8c0-0.1,0-0.1,0-0.2c0-0.1,0-0.1,0-0.2l0-0.1c0,0,0-0.1,0-0.1l0-0.1
			c-0.1-0.9-0.3-1.7-0.5-2.3c0-0.2-0.1-0.3-0.2-0.6c0-0.1-0.1-0.2-0.1-0.3c0-0.1,0-0.1-0.1-0.2l0,0l0,0c0,0,0,0,0-0.1l-0.1-0.3
			l0-0.1c-0.1-0.2-0.2-0.5-0.3-0.7c-0.1-0.2-0.2-0.4-0.2-0.6c-0.1-0.3-0.2-0.5-0.3-0.7l0-0.1c0,0,0-0.1-0.1-0.1
			c-0.1-0.1-0.1-0.3-0.2-0.4c-0.3-0.5-0.5-0.9-0.6-1.1c0,0,0,0,0-0.1c-0.1-0.1-0.1-0.2-0.2-0.3c-0.1-0.1-0.1-0.2-0.2-0.3l-0.2-0.4
			c0,0-0.1-0.1-0.1-0.1c-0.2-0.3-0.4-0.5-0.6-0.8c-0.3-0.3-0.6-0.7-0.9-1.1c0,0,0-0.1-0.1-0.1l0-0.1c-0.3-0.4-0.7-0.8-1-1.1
			c-0.3-0.2-0.6-0.5-0.9-0.8c-0.1-0.1-0.1-0.1-0.2-0.2c-0.1-0.1-0.2-0.2-0.4-0.3c0,0,0,0-0.1,0c-0.2-0.2-0.4-0.3-0.5-0.4
			c-1.2-1-2.6-2-4.1-2.9c-49.7-28.7-99.3-57.3-149-86c-12.5-7.2-32.7-7.2-45.1,0c-94.4,54.9-190.7,109.8-285.2,164.6
			c-0.9,0.5-1.7,1-2.4,1.6c0,0,0,0-0.1,0c-0.3,0.2-0.7,0.5-1,0.7c-0.2,0.2-0.5,0.4-0.8,0.6c-0.2,0.2-0.4,0.3-0.7,0.5l-1.3,1.2
			c-0.3,0.3-1.1,1.1-1.8,2c0,0,0,0,0,0l0,0c-0.4,0.5-0.8,1.1-1.2,1.6c-0.1,0.2-0.3,0.5-0.6,0.9c0,0.1-0.1,0.1-0.1,0.2l-0.1,0.1
			c-0.2,0.3-0.3,0.6-0.5,0.9l0,0.1c0,0,0,0,0,0.1c-0.3,0.7-0.7,1.5-0.9,2.3l0,0.1c0,0,0,0.1,0,0.1c0,0.1,0,0.1-0.1,0.2
			c0,0.1-0.1,0.3-0.1,0.4c0,0,0,0,0,0c-0.1,0.2-0.1,0.4-0.2,0.5c0,0,0,0.1,0,0.1l0,0.1c-0.2,0.6-0.2,1-0.3,1.2c0,0.1,0,0.2,0,0.3
			c0,0.3-0.1,0.5-0.1,0.8l0,0.2c0,0.3-0.1,0.5-0.1,0.7l0,0.1l0,0.3c0,0.3,0,0.8,0,1.1l0,1.4c0,0.7,0,1.4,0.1,2c0,0,0,0,0,0.1
			c0.1,0.7,0.2,1.4,0.3,1.9c0,0,0,0,0,0c0.1,0.4,0.2,0.7,0.2,1c0,0.1,0.1,0.2,0.1,0.3c0.1,0.4,0.2,0.8,0.4,1.2
			c0,0.1,0.1,0.3,0.2,0.4c0.3,0.9,0.7,1.7,1.1,2.5c0.2,0.3,0.3,0.6,0.4,0.8c0.1,0.2,0.3,0.4,0.4,0.7c0.2,0.3,0.3,0.5,0.5,0.8
			c0,0.1,0.1,0.1,0.1,0.2c0.7,1,1.6,2,2.8,3.2c0.5,0.5,1.3,1.2,1.9,1.6c0.5,0.4,1.1,0.8,1.7,1.2c0.6,0.4,1.2,0.8,1.7,1.1
			c-0.1-0.1-0.2-0.1-0.3-0.2c0.1,0.1,0.2,0.2,0.3,0.2l14.9,8.6l14.9,8.6l14.9,8.6l14.9,8.6l14.9,8.6l14.9,8.6l14.9,8.6l14.9,8.6
			l14.9,8.6l14.9,8.6l0,0c0.2,0.1,0.4,0.2,0.5,0.3c0.2,0.1,0.3,0.2,0.5,0.3c0,0,0.1,0,0.1,0c0.3,0.1,0.6,0.3,0.8,0.4
			c0.1,0.1,0.2,0.1,0.3,0.2l0.3,0.1c0.5,0.2,0.9,0.4,1.4,0.6l0.4,0.2c0.2,0.1,0.5,0.2,0.8,0.3c0.4,0.2,0.8,0.3,1.2,0.5
			c0.1,0,0.2,0.1,0.3,0.1l0.2,0.1c0.7,0.2,1.4,0.4,2,0.6l0.1,0c0.1,0,0.3,0.1,0.4,0.1c0.7,0.2,1.3,0.3,1.7,0.5c0.1,0,0.1,0,0.2,0
			c0,0,0.1,0,0.1,0c0.1,0,0.1,0,0.2,0c6.7,1.6,14.5,2,22.3,0.5c1.1-0.2,2.1-0.4,2.8-0.6c0.8-0.2,1.8-0.4,2.5-0.7c0,0,0.1,0,0.1,0
			c0.7-0.2,1.5-0.5,2.2-0.7l2.2-0.8c0.3-0.1,0.6-0.3,1-0.4c0.3-0.2,0.7-0.3,1-0.5c0.1-0.1,0.3-0.1,0.4-0.2c0.6-0.3,1.4-0.7,2-1.1
			l0,0l28.3-16.5l28.3-16.5l28.3-16.5l28.3-16.5l28.3-16.5l28.3-16.5l28.3-16.5l28.3-16.5l28.3-16.5l28.3-16.5l0,0
			c0.8-0.5,1.5-0.9,2.1-1.3c0,0,0.1,0,0.1-0.1l0,0c0.5-0.4,1-0.7,1.5-1.1l0,0c0.5-0.4,0.8-0.6,1.2-1c0,0,0.1-0.1,0.1-0.1
			c0.3-0.3,0.7-0.7,1.1-1.1c0,0,0.1-0.1,0.1-0.1l0.1-0.1c0.3-0.3,0.6-0.7,0.9-1l0.1-0.1c0,0,0,0,0,0c0.4-0.5,0.9-1.1,1.2-1.6
			c0.1-0.2,0.3-0.5,0.5-0.9l0.2-0.3c0.1-0.2,0.2-0.3,0.3-0.5c0,0,0,0,0,0c0-0.1,0.1-0.2,0.1-0.3c0,0,0,0.1-0.1,0.1
			c0.1-0.2,0.2-0.4,0.3-0.6c0,0,0-0.1,0.1-0.1l0-0.1c0.1-0.3,0.3-0.6,0.4-1l0-0.1l0.1-0.1c0.1-0.4,0.3-0.8,0.4-1.2
			c0-0.1,0-0.1,0-0.2l0-0.1c0,0,0,0,0,0.1c0.1-0.3,0.2-0.6,0.2-0.8l0-0.1c0,0,0,0,0-0.1c0.2-0.7,0.2-1.1,0.3-1.2
			c0-0.2,0.1-0.4,0.1-0.5l0.1-0.4c0,0.1,0,0.2-0.1,0.3c0,0,0-0.1,0-0.1l0.1-0.4c0,0,0-0.1,0-0.1c0-0.3,0.1-0.6,0.1-0.9
			c0-0.1,0-0.2,0-0.3c0-0.1,0-0.3,0-0.5c0-0.1,0-0.2,0-0.3c0,0,0,0,0,0v0c0-0.1,0-0.2,0-0.3l0-1.4L524.3,444.9z"/>
		<g>
			<g>
				<path class="st3" d="M528.3,409.9C528.3,409.8,528.3,409.8,528.3,409.9L528.3,409.9l0-0.1l0,0l0,0l0-0.1c0,0,0,0.1,0,0.1l0-0.3
					c0-0.1,0-0.2,0-0.3l0-0.4c0-0.2,0-0.5-0.1-0.8c0-0.1,0-0.1,0-0.2c0-0.1,0-0.1,0-0.2l0-0.1c0,0,0-0.1,0-0.1l0-0.1
					c-0.1-0.9-0.3-1.7-0.5-2.3c0-0.2-0.1-0.3-0.2-0.6c0-0.1-0.1-0.2-0.1-0.3c0-0.1,0-0.1-0.1-0.2l0,0l0,0c0,0,0,0,0-0.1l-0.1-0.3
					l0-0.1c-0.1-0.2-0.2-0.5-0.3-0.7c-0.1-0.2-0.2-0.4-0.2-0.6c-0.1-0.3-0.2-0.5-0.3-0.7l0-0.1c0,0,0-0.1-0.1-0.1
					c-0.1-0.1-0.1-0.3-0.2-0.4c-0.3-0.5-0.5-0.9-0.6-1.1c0,0,0,0,0-0.1c-0.1-0.1-0.1-0.2-0.2-0.3c-0.1-0.1-0.1-0.2-0.2-0.3l-0.2-0.4
					c0,0-0.1-0.1-0.1-0.1c-0.2-0.3-0.4-0.5-0.6-0.8c-0.3-0.3-0.6-0.7-0.9-1.1c0,0,0-0.1-0.1-0.1l0-0.1c-0.3-0.4-0.7-0.8-1-1.1
					c-0.3-0.2-0.6-0.5-0.9-0.8c-0.1-0.1-0.1-0.1-0.2-0.2c-0.1-0.1-0.2-0.2-0.4-0.3c0,0,0,0-0.1,0c-0.3-0.3-0.6-0.5-0.9-0.7
					c0,0-0.1-0.1-0.2-0.1c-0.3-0.2-0.7-0.5-1-0.7c-0.1-0.1-0.2-0.2-0.4-0.3c0,0,0.1,0,0.1,0.1l-0.1-0.1c0,0,0,0,0,0c0,0,0,0-0.1,0
					l-0.4-0.3c-0.4-0.2-0.9-0.5-1.2-0.8c0.5,0.3,1.1,0.6,1.6,1c-0.5-0.3-1.1-0.7-1.6-1c0,0,0,0,0,0c0,0,0,0,0,0c0,0,0,0,0,0
					c0,0,0,0,0,0c0,0,0,0,0,0c-0.1,0-0.1-0.1-0.2-0.1c0,0,0,0,0.1,0c-0.1,0-0.1-0.1-0.2-0.1c0,0,0,0,0,0c0,0,0,0,0,0c0,0,0,0,0,0
					c0,0,0,0,0,0c0,0,0,0,0,0c0,0,0,0,0,0c0,0,0,0,0,0c0,0,0,0,0,0c0,0,0,0,0,0c0,0,0,0,0,0c0,0,0,0-0.1,0c0,0,0,0-0.1,0
					c0,0,0,0,0,0c0,0-0.1,0-0.1,0c0,0,0,0-0.1,0c0,0,0,0,0,0c0,0,0,0,0,0c0,0,0,0-0.1,0c0,0,0,0,0,0c0,0,0,0,0,0c0,0,0,0,0,0
					c0,0-0.1,0-0.1,0c0,0,0,0,0,0c0,0,0,0,0,0c0,0-0.1,0-0.1,0c0,0-0.1,0-0.1,0c0,0,0,0,0,0c-0.1,0-0.2,0.1-0.3,0.1
					c0.4,0.2,0.8,0.5,1.1,0.7c0.8,0.5,1.6,1.1,2.2,1.6c0.3,0.2,0.5,0.4,0.8,0.7c1.1,0.9,2,1.9,2.7,3c1.2,2,2.5,4.6,2.5,7.5
					c-0.1,3.1-1.5,6.2-4.3,9c0,0-0.1,0.1-0.1,0.1c-0.1,0.1-0.3,0.3-0.5,0.4c-1,0.9-2.2,1.8-3.6,2.7c-0.2,0.1-0.5,0.3-0.7,0.4
					L231.6,582.1c-0.6,0.3-1.2,0.7-1.9,1c-1.7,0.8-3.9,1.7-6.4,2.5c-5.3,1.5-11.2,2.2-17,1.9c-5-0.3-10.6-1.4-16.6-3.7
					c-1.1-0.5-2.2-1-3.2-1.6l-149-86c-8.9-5.2-11.5-12.6-7.7-19.1c0.1-0.1,0.1-0.2,0.2-0.3c0.1-0.1,0.1-0.2,0.2-0.3
					c1.1-1.7,2.6-3.2,4.4-4.6c0.9-0.7,1.8-1.3,2.8-1.9c0,0,0,0-0.1,0c0,0,0,0,0,0c0,0-0.1,0-0.1,0c0,0,0,0,0,0c0,0-0.1,0-0.1,0
					c0,0,0,0,0,0c0,0-0.1,0-0.1,0c0,0,0,0,0,0c0,0-0.1,0-0.1,0c0,0,0,0,0,0c0,0,0,0,0,0c0,0,0,0,0,0c0,0,0,0,0,0c0,0,0,0,0,0
					c0,0,0,0,0,0c0,0,0,0,0,0c0,0,0,0,0,0l0,0c0,0,0,0,0,0c0,0,0,0,0,0c0,0,0,0-0.1,0l0,0c0,0,0,0,0,0c0,0,0,0,0,0c0,0,0,0,0,0
					c0,0,0,0,0,0l0,0c0,0,0,0,0,0c0,0,0,0,0,0c0,0,0,0-0.1,0c0,0,0,0,0,0c0,0,0,0,0,0c0,0,0,0,0,0c0,0,0,0,0,0c0,0,0,0,0,0
					c0,0,0,0,0,0c0,0,0,0,0,0c0,0,0,0,0,0c0,0,0,0,0,0c0,0,0,0,0,0c0,0,0,0,0,0c0,0,0,0,0,0c0,0,0,0,0,0c0,0,0,0,0,0c0,0,0,0,0,0
					c0,0,0,0,0,0c0,0,0,0,0,0c0,0,0,0,0,0c0,0,0,0,0,0c0,0,0,0,0,0c0,0,0,0,0,0c0,0,0,0,0,0c0,0,0,0,0,0c0,0,0,0,0,0c0,0,0,0,0,0
					c0,0,0,0,0,0c0,0,0,0,0,0c0,0,0,0,0,0c0,0,0,0,0,0c0,0,0,0,0,0c0,0,0,0,0,0c-0.1,0-0.2,0.1-0.2,0.1c-0.2,0.1-0.4,0.3-0.7,0.4
					c-0.2,0.1-0.4,0.3-0.6,0.4c-0.1,0.1-0.3,0.2-0.4,0.3c0,0-0.1,0-0.1,0c-0.3,0.2-0.7,0.5-1,0.7c-0.2,0.2-0.5,0.4-0.8,0.6
					c-0.2,0.2-0.4,0.3-0.7,0.5l-1.3,1.2c-0.3,0.3-1.1,1.1-1.8,2c0,0,0,0,0,0l0,0c-0.4,0.5-0.8,1.1-1.2,1.6c-0.1,0.2-0.3,0.5-0.6,0.9
					c0,0.1-0.1,0.1-0.1,0.2l-0.1,0.1c-0.2,0.3-0.3,0.6-0.5,0.9l0,0.1c0,0,0,0,0,0.1c-0.3,0.7-0.7,1.5-0.9,2.3l0,0.1c0,0,0,0.1,0,0.1
					c0,0.1,0,0.1-0.1,0.2c0,0.2-0.1,0.3-0.1,0.4c0,0,0,0,0,0c-0.1,0.2-0.1,0.4-0.2,0.5c0,0,0,0.1,0,0.1l0,0.1
					c-0.2,0.6-0.2,1-0.3,1.2c0,0.1,0,0.2,0,0.3c0,0.3-0.1,0.5-0.1,0.8l0,0.2c0,0.3-0.1,0.5-0.1,0.7l0,0.1l0,0.3c0,0.3,0,0.8,0,1.1
					l0,1.4c0,0.7,0,1.4,0.1,2c0,0,0,0,0,0.1c0.1,0.7,0.2,1.4,0.3,1.9c0,0,0,0,0,0c0.1,0.4,0.2,0.7,0.2,1c0,0.1,0.1,0.2,0.1,0.3
					c0.1,0.4,0.2,0.8,0.4,1.2c0,0.1,0.1,0.3,0.2,0.4c0.3,0.9,0.7,1.7,1.1,2.5c0.2,0.3,0.3,0.6,0.4,0.8c0.1,0.2,0.3,0.4,0.4,0.7
					c0.2,0.3,0.3,0.5,0.5,0.8c0,0.1,0.1,0.1,0.1,0.2c0.7,1,1.6,2,2.8,3.2c0.5,0.5,1.3,1.2,1.9,1.6c0.5,0.4,1.1,0.8,1.7,1.2
					c0.6,0.4,1.2,0.8,1.7,1.1c-0.1-0.1-0.2-0.1-0.3-0.2c0.1,0.1,0.2,0.2,0.3,0.2l14.9,8.6l14.9,8.6l14.9,8.6l14.9,8.6l14.9,8.6
					l14.9,8.6l14.9,8.6l14.9,8.6l14.9,8.6l14.9,8.6l0,0c0.2,0.1,0.4,0.2,0.5,0.3c0.2,0.1,0.3,0.2,0.5,0.3c0,0,0.1,0,0.1,0
					c0.3,0.1,0.6,0.3,0.8,0.4c0.1,0.1,0.2,0.1,0.3,0.2l0.3,0.1c0.5,0.2,0.9,0.4,1.4,0.6l0.4,0.2c0.2,0.1,0.5,0.2,0.8,0.3
					c0.4,0.2,0.8,0.3,1.2,0.5c0.1,0,0.2,0.1,0.3,0.1l0.2,0.1c0.7,0.2,1.4,0.4,2,0.6l0.1,0c0.1,0,0.3,0.1,0.4,0.1
					c0.7,0.2,1.3,0.3,1.7,0.5c0.1,0,0.1,0,0.2,0c0,0,0.1,0,0.1,0c0.1,0,0.1,0,0.2,0c6.7,1.6,14.5,2,22.3,0.5
					c1.1-0.2,2.1-0.4,2.8-0.6c0.8-0.2,1.8-0.4,2.5-0.7c0,0,0.1,0,0.1,0c0.7-0.2,1.5-0.5,2.2-0.7l2.2-0.8c0.3-0.1,0.6-0.3,1-0.4
					c0.3-0.2,0.7-0.3,1-0.5c0.1-0.1,0.3-0.1,0.4-0.2c0.6-0.3,1.4-0.7,2-1.1l0,0l28.3-16.5l28.3-16.5l28.3-16.5l28.3-16.5l28.3-16.5
					l28.3-16.5l28.3-16.5l28.3-16.5l28.3-16.5l28.3-16.5v0l0,0c0.8-0.5,1.5-0.9,2.1-1.3c0,0,0.1,0,0.1-0.1l0,0
					c0.5-0.4,1-0.7,1.5-1.1l0,0c0.5-0.4,0.8-0.6,1.2-1c0,0,0.1-0.1,0.1-0.1c0.3-0.3,0.7-0.7,1.1-1.1c0,0,0.1-0.1,0.1-0.1l0.1-0.1
					c0.3-0.3,0.6-0.7,0.9-1l0.1-0.1c0,0,0,0,0,0c0.4-0.5,0.9-1.1,1.2-1.6c0.1-0.2,0.3-0.5,0.5-0.9l0.2-0.3c0.1-0.2,0.2-0.3,0.3-0.5
					c0,0,0,0,0,0c0-0.1,0.1-0.2,0.1-0.3c0,0,0,0.1-0.1,0.1c0.1-0.2,0.2-0.4,0.3-0.6c0,0,0-0.1,0.1-0.1l0-0.1c0.1-0.3,0.3-0.6,0.4-1
					l0-0.1l0.1-0.2c0.1-0.4,0.3-0.8,0.4-1.2c0-0.1,0-0.1,0-0.2l0-0.1c0,0,0,0,0,0.1c0.1-0.3,0.2-0.6,0.2-0.8l0-0.1c0,0,0,0,0-0.1
					c0.2-0.7,0.2-1.1,0.3-1.2c0-0.2,0.1-0.4,0.1-0.5l0.1-0.4c0,0.1,0,0.2-0.1,0.3c0,0,0-0.1,0-0.1l0.1-0.4c0,0,0-0.1,0-0.1
					c0-0.3,0.1-0.6,0.1-0.9c0-0.1,0-0.2,0-0.3c0-0.1,0-0.3,0-0.5c0-0.1,0-0.2,0-0.3c0,0,0,0,0,0l0,0c0-0.1,0-0.2,0-0.3l0-1.4
					L528.3,409.9z M234.5,591.4L234.5,591.4c0,0,0-0.1,0-0.1v0C234.5,591.3,234.5,591.3,234.5,591.4z M234.5,591.1L234.5,591.1
					C234.5,591.1,234.5,591.1,234.5,591.1L234.5,591.1C234.5,591.1,234.5,591.1,234.5,591.1z M234.5,590.7L234.5,590.7
					C234.5,590.7,234.5,590.7,234.5,590.7C234.5,590.7,234.5,590.7,234.5,590.7z M34.8,505.4c0,0.6,0.1,1.1,0.3,1.5
					C34.9,506.5,34.8,506,34.8,505.4z M183.7,590.7c0,1.7,0.4,3,1,3.6C184.1,593.7,183.7,592.4,183.7,590.7z M184.8,594.4
					c0,0,0.1,0.1,0.1,0.1C184.9,594.5,184.8,594.5,184.8,594.4z"/>
				<g>
					<path class="st4" d="M515.8,390.8c12.5,7.2,12.5,18.9,0.1,26.1C421.5,471.8,324.2,528.2,229.8,583c-12.4,7.2-31.6,5.7-44-1.5
						c-49.7-28.7-99.3-57.3-149-86c-12.5-7.2-12.6-18.9-0.2-26.1c94.4-54.9,190.7-109.8,285.2-164.6c12.4-7.2,32.6-7.2,45.1,0
						C416.5,333.4,466.2,362.1,515.8,390.8z"/>
				</g>
				<path class="st3" d="M486.1,389.3l-118.2-68.2c-14.1-8.1-36.9-8.1-50.8,0L101.8,446.2c-14,8.1-13.9,21.3,0.2,29.4l118.2,68.2
					c14.1,8.1,36.9,8.1,50.8,0l215.2-125.1C500.2,410.7,500.2,397.5,486.1,389.3z"/>
			</g>
			<path class="st5" d="M155.3,531.3l-33-19c-2-1.1-5.1-1.1-7.1,0c-1.9,1.1-1.9,3,0,4.1l33,19c2,1.1,5.1,1.1,7.1,0
				C157.3,534.2,157.2,532.4,155.3,531.3z"/>
		</g>
		<path class="st6" d="M539.8,149.6L287.7,4c-10.9-6.3-24.5,1.5-24.5,14.1l-0.6,195.4c0,5.9,3.1,11.3,8.2,14.2l252.1,145.6
			c10.9,6.3,24.5-1.5,24.5-14.1l0.6-195.4C548,157.9,544.9,152.5,539.8,149.6z"/>
		<path class="st4" d="M639.1,106.5L478.5,13.8c-4.5-2.6-8.1-0.5-8.2,4.7l-0.4,126c0,5.2,3.6,11.4,8.1,14l160.5,92.7
			c4.5,2.6,8.1,0.5,8.2-4.6l0.4-126C647.2,115.4,643.6,109.1,639.1,106.5z"/>
		<g>
			<path class="st4" d="M456.1,193L204,47.5c-10.9-6.3-24.5,1.5-24.5,14.1L178.9,257c0,5.9,3.1,11.3,8.2,14.2l252.1,145.6
				c10.9,6.3,24.5-1.5,24.5-14.1l0.6-195.4C464.3,201.4,461.1,196,456.1,193z"/>
			<path class="st7" d="M184.5,18.5L156.9,2.6c-3.2-1.8-5.8-0.4-5.8,3.3L151,37.6c0,3.7,2.6,8.1,5.7,10l27.6,15.9
				c3.2,1.8,5.8,0.4,5.8-3.3l0.1-31.7C190.2,24.8,187.6,20.4,184.5,18.5z"/>
			<path class="st7" d="M235.1,48.5l-27.6-15.9c-3.2-1.8-5.8-0.4-5.8,3.3l-0.1,31.7c0,3.7,2.6,8.1,5.7,10L235,93.5
				c3.2,1.8,5.8,0.4,5.8-3.3l0.1-31.7C240.9,54.8,238.3,50.4,235.1,48.5z"/>
			<path class="st6" d="M175.6,35.9l5-2.9c1.4-0.8,1.4-3.4,0-5.8c-0.7-1.2-1.6-2.1-2.5-2.6c-0.9-0.5-1.8-0.7-2.5-0.3l-5,2.9l-5-8.7
				c-0.7-1.2-1.6-2.1-2.5-2.6c-0.9-0.5-1.8-0.7-2.5-0.3c-1.4,0.8-1.4,3.4,0,5.8l5,8.7l-5,2.9c-1.4,0.8-1.4,3.4,0,5.8
				c0.7,1.2,1.6,2.1,2.5,2.6c0.9,0.5,1.8,0.6,2.5,0.3l5-2.9l5,8.7c0.7,1.2,1.6,2.1,2.5,2.6c0.9,0.5,1.8,0.6,2.5,0.3
				c1.4-0.8,1.4-3.4,0-5.8L175.6,35.9z"/>
			<path class="st6" d="M230.8,75.8l-19.2-11.1c-2-1.1-3.6-0.2-3.6,2c0,2.3,1.6,5,3.5,6.1L230.8,84c2,1.1,3.6,0.2,3.6-2
				C234.4,79.7,232.8,77,230.8,75.8z"/>
		</g>
		<path class="st6" d="M438.1,214c-1.3-2.3-3.3-4.4-5.3-5.6l-66.3-38.3c-2.1-1.2-4-1.3-5.3-0.5c-1.4,0.8-2.2,2.5-2.2,4.8l-0.2,76.2
			c0,2.4,0.8,5.1,2.2,7.4c1.3,2.3,3.3,4.4,5.3,5.6l66.3,38.3c2.1,1.2,4,1.3,5.3,0.5c1.4-0.8,2.2-2.5,2.2-4.8l0.2-76.2
			C440.3,219.1,439.5,216.4,438.1,214z M433,293.6c0,0.2,0,0.2-0.1,0.3c-0.1,0-0.2,0-0.3,0l-66.3-38.3c-0.1-0.1-0.2-0.2-0.3-0.3
			c-0.1-0.2-0.1-0.3-0.1-0.4l0.2-76.2c0-0.1,0-0.2,0.1-0.3c0.1-0.1,0.2-0.1,0.3,0l66.3,38.3c0.1,0.1,0.2,0.2,0.3,0.3
			c0.1,0.2,0.1,0.3,0.1,0.4L433,293.6z"/>
		<path class="st6" d="M342.7,268.1c-1.3-2.3-3.2-4.4-5.3-5.6c0,0,0,0,0,0l-132.6-76.4c0,0,0,0,0,0c-2.1-1.2-4-1.3-5.3-0.5
			c-1.4,0.8-2.2,2.5-2.2,4.9l-0.2,55.5c0,2.4,0.8,5.1,2.2,7.4c1.3,2.3,3.2,4.4,5.3,5.6c0,0,0,0,0,0l132.6,76.4c0,0,0,0,0,0
			c2.1,1.2,4,1.3,5.3,0.5c1.4-0.8,2.2-2.5,2.2-4.9l0.2-55.5C344.9,273.1,344.1,270.4,342.7,268.1z M337.6,326.9c0,0.2,0,0.2-0.1,0.3
			c-0.1,0-0.2,0-0.3,0l-132.6-76.4c-0.1-0.1-0.2-0.2-0.3-0.3c-0.1-0.2-0.1-0.3-0.1-0.4l0.2-55.5c0-0.2,0-0.2,0.1-0.3
			c0.1,0,0.2,0,0.3,0l132.6,76.4c0.1,0.1,0.2,0.2,0.3,0.3c0.1,0.2,0.1,0.3,0.1,0.4L337.6,326.9z"/>
		<path class="st6" d="M300.8,163.8l-95.6-54.1c-2-1.1-3.6-0.2-3.6,2c0,2.3,1.6,5,3.5,6.1l95.6,54.1c2,1.1,3.6,0.2,3.6-2
			C304.4,167.7,302.8,165,300.8,163.8z"/>
		<path class="st6" d="M341.4,227.4l-95.6-54.1c-2-1.1-3.6-0.2-3.6,2c0,2.3,1.6,5,3.5,6.1l95.6,54.1c2,1.1,3.6,0.2,3.6-2
			C344.9,231.3,343.3,228.5,341.4,227.4z"/>
		<g>
			<path class="st8" d="M606.4,118.8l-95.6-54.1c-2-1.1-3.6-0.2-3.6,2c0,2.3,1.6,5,3.5,6.1l95.6,54.1c2,1.1,3.6,0.2,3.6-2
				C610,122.7,608.4,120,606.4,118.8z"/>
			<path class="st8" d="M606.4,156.4l-95.6-54.1c-2-1.1-3.6-0.2-3.6,2c0,2.3,1.6,5,3.5,6.1l95.6,54.1c2,1.1,3.6,0.2,3.6-2
				C610,160.3,608.4,157.6,606.4,156.4z"/>
			<path class="st8" d="M606.4,194.1L510.8,140c-2-1.1-3.6-0.2-3.6,2c0,2.3,1.6,5,3.5,6.1l95.6,54.1c2,1.1,3.6,0.2,3.6-2
				C610,197.9,608.4,195.2,606.4,194.1z"/>
		</g>
	</g>
</g>
</svg>
